# xmcd CD database file
#
# Track frame offsets:
#	150
#	15872
#	35364
#	49828
#	70076
#	88365
#	102306
#	114265
#	128786
#	144444
#	161784
#	174357
#	190622
#	208258
#	224492
#	242554
#	258616
#
# Disc length: 3680 seconds
#
# Revision: 1
# Processed by: cddbd v1.5.2PL0 Copyright (c) Steve Scherf et al.
# Submitted via: CDex 1.70beta2
#
DISCID=ef0e5e11
DTITLE=Various Artist - Songs For My Ute Volume 6 Disc 2
DYEAR=2008
DGENRE=Country
TTITLE0=Big and Rich: Comin' To Your City
TTITLE1=Brooks and Dunn: Hillbilly Deluxe
TTITLE2=Travis Collins: Yeah She Does
TTITLE3=Tim McGraw: Last Dollar
TTITLE4=Adam Brand: That Changes Everything
TTITLE5=Miranda Lambert: Kerosene
TTITLE6=James Blundell: Drive On
TTITLE7=Montgomery Gentry: Hillbilly Shoes
TTITLE8=Brad Paisley: Mud On The Tires
TTITLE9=Amber Lawrence: Gonna Fly
TTITLE10=Jonah's Road: Counting Down the Days
TTITLE11=Matt Scullion: Love is Like a Chevy
TTITLE12=The Noll Brothers: Shinning Star
TTITLE13=The Sunny Cowgirls: Six pack Short
TTITLE14=Lonestar: You're Like commin' Home
TTITLE15=The McClymonts: Save Yourself
TTITLE16=Alan Jackson: It's Five O'Clock Somewhere
EXTD=YEAR: 2008
EXTT0=
EXTT1=
EXTT2=
EXTT3=
EXTT4=
EXTT5=
EXTT6=
EXTT7=
EXTT8=
EXTT9=
EXTT10=
EXTT11=
EXTT12=
EXTT13=
EXTT14=
EXTT15=
EXTT16=
PLAYORDER=
